<?xml version="1.0"?>
<svg xmlns="http://www.w3.org/2000/svg" height="512px" viewBox="0 0 64 64" width="512px"><g><g id="Bill-4" data-name="Bill"><path d="m41 38h-18a1 1 0 0 0 -1 1v18a1 1 0 0 0 1 1h18a1 1 0 0 0 1-1v-18a1 1 0 0 0 -1-1zm-1 6h-4v-4h4zm-10 6v-4h4v4zm4 2v4h-4v-4zm-6-2h-4v-4h4zm2-6v-4h4v4zm6 2h4v4h-4zm-8-6v4h-4v-4zm-4 12h4v4h-4zm12 4v-4h4v4z" data-original="#000000" class="active-path" data-old_color="#000000" fill="#50E7E7"/><path d="m47 20h-2v-17a1 1 0 0 0 -1.9-.447l-1.1 2.211-1.1-2.211a1.042 1.042 0 0 0 -1.79 0l-1.11 2.211-1.1-2.211a1.042 1.042 0 0 0 -1.79 0l-1.11 2.206-1.1-2.2a1 1 0 0 0 -.886-.559 1 1 0 0 0 -.894.551l-1.12 2.218-1.1-2.216a1.042 1.042 0 0 0 -1.79 0l-1.11 2.211-1.1-2.211a1.042 1.042 0 0 0 -1.79 0l-1.11 2.211-1.1-2.211a1 1 0 0 0 -1.9.447v17h-2a2 2 0 0 0 -2 2v13a1 1 0 0 0 .105.447l1.895 3.789v20.764a2 2 0 0 0 2 2h26a2 2 0 0 0 2-2v-20.764l1.9-3.789a1 1 0 0 0 .1-.447v-13a2 2 0 0 0 -2-2zm-26-12.764.105.211a1.042 1.042 0 0 0 1.79 0l1.105-2.211 1.105 2.211a1.042 1.042 0 0 0 1.79 0l1.105-2.211 1.105 2.211a1 1 0 0 0 .895.553 1 1 0 0 0 .894-.551l1.113-2.213 1.1 2.209a1 1 0 0 0 .893.555 1 1 0 0 0 .9-.553l1.1-2.211 1.1 2.211a1.042 1.042 0 0 0 1.79 0l1.11-2.211 1.1 2.211a1.042 1.042 0 0 0 1.79 0l.1-.211v12.764h-21.99zm26 27.528-1.9 3.789a1 1 0 0 0 -.1.447v21h-26v-21a1 1 0 0 0 -.105-.447l-1.895-3.789v-12.764h30z" data-original="#000000" class="active-path" data-old_color="#000000" fill="#50E7E7"/><path d="m20 36h24a1 1 0 0 0 1-1v-10a1 1 0 0 0 -1-1h-24a1 1 0 0 0 -1 1v10a1 1 0 0 0 1 1zm1-10h22v8h-22z" data-original="#000000" class="active-path" data-old_color="#000000" fill="#50E7E7"/><path d="m25 11h10v2h-10z" data-original="#000000" class="active-path" data-old_color="#000000" fill="#50E7E7"/><path d="m37 11h2v2h-2z" data-original="#000000" class="active-path" data-old_color="#000000" fill="#50E7E7"/><path d="m25 15h10v2h-10z" data-original="#000000" class="active-path" data-old_color="#000000" fill="#50E7E7"/><path d="m37 15h2v2h-2z" data-original="#000000" class="active-path" data-old_color="#000000" fill="#50E7E7"/><path d="m39 29h2v2h-2z" data-original="#000000" class="active-path" data-old_color="#000000" fill="#50E7E7"/><path d="m35 29h2v2h-2z" data-original="#000000" class="active-path" data-old_color="#000000" fill="#50E7E7"/><path d="m31 29h2v2h-2z" data-original="#000000" class="active-path" data-old_color="#000000" fill="#50E7E7"/></g></g> </svg>
