<?xml version="1.0" encoding="iso-8859-1"?>
<!-- Generator: Adobe Illustrator 19.0.0, SVG Export Plug-In . SVG Version: 6.00 Build 0)  -->
<svg version="1.1" id="Capa_1" xmlns="http://www.w3.org/2000/svg" xmlns:xlink="http://www.w3.org/1999/xlink" x="0px" y="0px"
	 viewBox="0 0 512 512" style="enable-background:new 0 0 512 512;" xml:space="preserve">
<linearGradient id="SVGID_1_" gradientUnits="userSpaceOnUse" x1="0" y1="258" x2="512" y2="258" gradientTransform="matrix(1 0 0 -1 0 514)">
	<stop  offset="0" style="stop-color:#00F2FE"/>
	<stop  offset="0.021" style="stop-color:#03EFFE"/>
	<stop  offset="0.293" style="stop-color:#24D2FE"/>
	<stop  offset="0.554" style="stop-color:#3CBDFE"/>
	<stop  offset="0.796" style="stop-color:#4AB0FE"/>
	<stop  offset="1" style="stop-color:#4FACFE"/>
</linearGradient>
<path style="fill:url(#SVGID_1_);" d="M472,216.061v-100c0-22.056-17.944-40-40-40H80c-22.056,0-40,17.944-40,40v200
	c0,22.056,17.944,40,40,40h352c22.056,0,40-17.944,40-40c0-11.046,8.954-20,20-20s20,8.954,20,20c0,44.112-35.888,80-80,80H276
	v39.878h70c11.046,0,20,8.954,20,20s-8.954,20-20,20H166c-11.046,0-20-8.954-20-20s8.954-20,20-20h70v-39.878H80
	c-44.112,0-80-35.888-80-80v-200c0-44.112,35.888-80,80-80h352c44.112,0,80,35.888,80,80v100c0,11.046-8.954,20-20,20
	S472,227.107,472,216.061z M329.508,183.18C341.713,190.261,349,202.927,349,217.061s-7.287,26.799-19.493,33.881l-85.853,49.819
	l0,0c-6.126,3.555-12.854,5.333-19.58,5.333c-6.686,0-13.37-1.756-19.471-5.269C192.328,293.757,185,281.066,185,266.88v-99.638
	c0-14.187,7.328-26.877,19.604-33.946c12.239-7.047,26.836-7.023,39.051,0.064L329.508,183.18z M308.198,217.061L225,168.782v96.557
	L308.198,217.061z"/>
<g>
</g>
<g>
</g>
<g>
</g>
<g>
</g>
<g>
</g>
<g>
</g>
<g>
</g>
<g>
</g>
<g>
</g>
<g>
</g>
<g>
</g>
<g>
</g>
<g>
</g>
<g>
</g>
<g>
</g>
</svg>
