<?xml version="1.0"?>
<svg xmlns="http://www.w3.org/2000/svg" height="512px" viewBox="0 0 512 512" width="512px"><g><path d="m467 0h-422c-24.8125 0-45 20.1875-45 45v422c0 24.8125 20.1875 45 45 45h422c24.8125 0 45-20.1875 45-45v-422c0-24.8125-20.1875-45-45-45zm-165 150v61h-60v-61zm90 0v61h-60v-61zm90 0v61h-60v-61zm-332 91h62v60h-62zm0 90h62v60h-62zm92 0h60v60h-60zm0-30v-60h60v60zm90-60h60v60h-60zm90 0h60v60h-60zm-210-30h-62v-61h62zm-62 210h62v61h-62zm92 0h60v61h-60zm90 0h60v61h-60zm0-30v-60h60v60zm90-60h60v60h-60zm-392 136v-422c0-8.269531 6.730469-15 15-15h422c8.269531 0 15 6.730469 15 15v75h-347c-8.285156 0-15 6.714844-15 15v347h-75c-8.269531 0-15-6.730469-15-15zm437 15h-45v-61h60v46c0 8.269531-6.730469 15-15 15zm0 0" data-original="#000000" class="active-path" data-old_color="#000000" fill="#57DFE5"/><path d="m331.972656 75c0 8.285156-6.71875 15-15 15-8.285156 0-15-6.714844-15-15s6.714844-15 15-15c8.28125 0 15 6.714844 15 15zm0 0" data-original="#000000" class="active-path" data-old_color="#000000" fill="#57DFE5"/><path d="m89.972656 135c0 8.285156-6.71875 15-15 15-8.285156 0-15-6.714844-15-15s6.714844-15 15-15c8.28125 0 15 6.714844 15 15zm0 0" data-original="#000000" class="active-path" data-old_color="#000000" fill="#57DFE5"/><path d="m89.972656 196c0 8.285156-6.71875 15-15 15-8.285156 0-15-6.714844-15-15s6.714844-15 15-15c8.28125 0 15 6.714844 15 15zm0 0" data-original="#000000" class="active-path" data-old_color="#000000" fill="#57DFE5"/><path d="m89.972656 256c0 8.285156-6.71875 15-15 15-8.285156 0-15-6.714844-15-15s6.714844-15 15-15c8.28125 0 15 6.714844 15 15zm0 0" data-original="#000000" class="active-path" data-old_color="#000000" fill="#57DFE5"/><path d="m391.972656 75c0 8.285156-6.71875 15-15 15-8.285156 0-15-6.714844-15-15s6.714844-15 15-15c8.28125 0 15 6.714844 15 15zm0 0" data-original="#000000" class="active-path" data-old_color="#000000" fill="#57DFE5"/><path d="m451.972656 75c0 8.285156-6.71875 15-15 15-8.285156 0-15-6.714844-15-15s6.714844-15 15-15c8.28125 0 15 6.714844 15 15zm0 0" data-original="#000000" class="active-path" data-old_color="#000000" fill="#57DFE5"/><path d="m75 90h182c8.285156 0 15-6.714844 15-15s-6.714844-15-15-15h-182c-8.285156 0-15 6.714844-15 15s6.714844 15 15 15zm0 0" data-original="#000000" class="active-path" data-old_color="#000000" fill="#57DFE5"/><path d="m75 301c-8.285156 0-15 6.714844-15 15v121c0 8.285156 6.714844 15 15 15s15-6.714844 15-15v-121c0-8.285156-6.714844-15-15-15zm0 0" data-original="#000000" class="active-path" data-old_color="#000000" fill="#57DFE5"/></g> </svg>
